<svg width="122" height="123" viewBox="0 0 122 123" fill="none" xmlns="http://www.w3.org/2000/svg">
<path fill-rule="evenodd" clip-rule="evenodd" d="M96.84 2.22L119.26 24.64C122.22 27.6 122.22 32.44 119.26 35.4L106.86 47.8L73.68 14.62L86.08 2.22C89.04 -0.74 93.88 -0.74 96.84 2.22ZM70.18 52.19V52.2C71.1 53.12 71.56 54.34 71.56 55.54C71.56 56.74 71.1 57.95 70.18 58.88V58.89L70.17 58.9L40.09 88.99H40.08C39.82 89.25 39.53 89.47 39.24 89.66H39.23C38.93 89.85 38.62 90 38.3 90.11C36.64 90.69 34.71 90.31 33.39 88.99H33.38V88.98C33.12 88.72 32.9 88.43 32.71 88.14V88.13C32.52 87.83 32.37 87.52 32.26 87.2C31.68 85.54 32.06 83.61 33.37 82.29V82.28L63.46 52.19H63.47C64.39 51.27 65.61 50.81 66.81 50.81C68.01 50.81 69.22 51.27 70.15 52.19H70.18ZM45.48 109.11C36.5 111.89 27.53 114.66 18.55 117.44C-2.54996 123.97 -2.45996 128.32 3.30004 108L12.37 76L12.34 75.97L67.4 20.9L100.58 54.08L45.51 109.15L45.48 109.11ZM18.03 81.66L39.82 103.45C33.92 105.27 28.02 107.09 22.13 108.9C8.27004 113.17 8.33004 116.03 12.1 102.68L18.03 81.66Z" fill="#808080"/>
</svg>
